# xmcd
#
# Track frame offsets:
#	150
#	24878
#	36105
#	49459
#	65575
#	78687
#	90814
#	109966
#	120473
#	131542
#	168956
#	184660
#	197279
#	207779
#
# Disc length: 3015 seconds
#
# Revision: 1
# Processed by: cddbd v1.5.1PL2 Copyright (c) Steve Scherf et al.
# Submitted via: EasyCDDAExtractor 9.0.0.1
#
DISCID=b10bc50e
DTITLE=Various Artist - Blues Breakers CD2
DYEAR=1900
DGENRE=Blues
TTITLE0=Jimmy Witherspoon - C. C. Rider
TTITLE1=John Lee Hooker - Boom Boom
TTITLE2=Muddy Waters - Baby Please Don't Go
TTITLE3=B. B. King - It's My Own Fault Baby
TTITLE4=Elmore James - Standing At The Crossroads
TTITLE5=Lightning Slim - Rooster Blues
TTITLE6=John Mayall - John Lee Boogie
TTITLE7=Ray Charles - I'm Movin' On
TTITLE8=Canned Heat - Can't Hold On
TTITLE9=Eddy Wilson's Blues Band and Friends - Hoochy Coochy Man
TTITLE10=Mike Bloomfield - Don't You Lie To Me
TTITLE11=Eric Clapton - Freight Loader
TTITLE12=Johnny Winter - Out Of Sight
TTITLE13=Santana - With A Little Help From My Friends
EXTD=
EXTT0=
EXTT1=
EXTT2=
EXTT3=
EXTT4=
EXTT5=
EXTT6=
EXTT7=
EXTT8=
EXTT9=
EXTT10=
EXTT11=
EXTT12=
EXTT13=
PLAYORDER=
